<svg width="543" height="389" viewBox="0 0 543 389" fill="none" xmlns="http://www.w3.org/2000/svg">
<path d="M536.888 147.101C535.379 145.844 521.801 135.534 492.632 135.534C485.088 135.534 477.293 136.288 469.75 137.546C464.218 99.073 432.283 80.4654 431.026 79.4596L423.231 74.9334L418.202 82.2256C411.915 92.0323 407.138 103.096 404.372 114.412C399.091 136.288 402.36 156.908 413.424 174.509C400.097 182.053 378.472 183.813 373.946 184.065L16.8803 184.065C7.57646 184.065 0.0328293 191.608 0.0328301 200.912C-0.470076 232.092 4.81047 263.273 15.623 292.693C27.9443 324.879 46.3005 348.767 69.9372 363.352C96.5913 379.696 140.093 389 189.127 389C211.255 389 233.383 386.988 255.259 382.965C285.685 377.433 314.854 366.872 341.759 351.533C363.887 338.709 383.752 322.365 400.6 303.254C429.014 271.319 445.862 235.613 458.183 203.93L463.212 203.93C494.141 203.93 513.251 191.608 523.812 181.047C530.853 174.509 536.134 166.463 539.905 157.41L542.169 150.873L536.888 147.101Z" fill="#0091E2"/>
<path d="M50.0723 173.755L97.8487 173.755C100.112 173.755 102.123 171.995 102.123 169.48L102.123 126.733C102.123 124.47 100.363 122.458 97.8487 122.458L50.0723 122.458C47.8093 122.458 45.7976 124.218 45.7976 126.733L45.7976 169.48C46.0491 171.995 47.8093 173.755 50.0723 173.755ZM115.953 173.755L163.73 173.755C165.993 173.755 168.004 171.995 168.004 169.48L168.004 126.733C168.004 124.47 166.244 122.458 163.73 122.458L115.953 122.458C113.69 122.458 111.679 124.218 111.679 126.733L111.679 169.48C111.93 171.995 113.69 173.755 115.953 173.755ZM183.092 173.755L230.868 173.755C233.131 173.755 235.143 171.995 235.143 169.48L235.143 126.733C235.143 124.47 233.383 122.458 230.868 122.458L183.092 122.458C180.829 122.458 178.817 124.218 178.817 126.733L178.817 169.48C178.817 171.995 180.577 173.755 183.092 173.755ZM249.224 173.755L297.001 173.755C299.264 173.755 301.275 171.995 301.275 169.48L301.275 126.733C301.275 124.47 299.515 122.458 297.001 122.458L249.224 122.458C246.961 122.458 244.95 124.218 244.95 126.733L244.95 169.48C244.95 171.995 246.961 173.755 249.224 173.755ZM115.953 112.652L163.73 112.652C165.993 112.652 168.004 110.64 168.004 108.377L168.004 65.6296C168.004 63.3665 166.244 61.3549 163.73 61.3549L115.953 61.3549C113.69 61.3549 111.679 63.1151 111.679 65.6296L111.679 108.377C111.93 110.64 113.69 112.652 115.953 112.652ZM183.092 112.652L230.868 112.652C233.131 112.652 235.143 110.64 235.143 108.377L235.143 65.6296C235.143 63.3665 233.383 61.3548 230.868 61.3548L183.092 61.3549C180.829 61.3549 178.817 63.1151 178.817 65.6296L178.817 108.377C178.817 110.64 180.577 112.652 183.092 112.652ZM249.224 112.652L297.001 112.652C299.264 112.652 301.275 110.64 301.275 108.377L301.275 65.6296C301.275 63.3665 299.264 61.3548 297.001 61.3548L249.224 61.3548C246.961 61.3548 244.95 63.1151 244.95 65.6296L244.95 108.377C244.95 110.64 246.961 112.652 249.224 112.652ZM249.224 51.2967L297.001 51.2967C299.264 51.2967 301.275 49.5365 301.275 47.022L301.275 4.27473C301.275 2.01164 299.264 -2.21587e-05 297.001 -2.19609e-05L249.224 -1.77841e-05C246.961 -1.75863e-05 244.95 1.76019 244.95 4.27474L244.95 47.022C244.95 49.2851 246.961 51.2967 249.224 51.2967ZM315.86 173.755L363.636 173.755C365.899 173.755 367.911 171.995 367.911 169.48L367.911 126.733C367.911 124.47 366.151 122.458 363.636 122.458L315.86 122.458C313.597 122.458 311.585 124.218 311.585 126.733L311.585 169.48C311.836 171.995 313.597 173.755 315.86 173.755Z" fill="#0091E2"/>
</svg>
