<?xml version="1.0" standalone="no"?>
<!DOCTYPE svg PUBLIC "-//W3C//DTD SVG 20010904//EN"
 "http://www.w3.org/TR/2001/REC-SVG-20010904/DTD/svg10.dtd">
<svg version="1.0" xmlns="http://www.w3.org/2000/svg"
 width="420.000000pt" height="420.000000pt" viewBox="0 0 420.000000 420.000000"
 preserveAspectRatio="xMidYMid meet">
<metadata>
Created by potrace 1.14, written by Peter Selinger 2001-2017
</metadata>
<g transform="translate(0.000000,420.000000) scale(0.100000,-0.100000)"
fill="#000000" stroke="none">
<path d="M1622 3519 c-40 -4 -85 -12 -100 -17 -15 -6 -47 -15 -72 -21 -110
-25 -215 -83 -314 -173 -17 -16 -34 -28 -38 -28 -11 0 -98 -87 -98 -99 0 -6
-4 -11 -8 -11 -12 0 -40 -67 -53 -129 -7 -34 -9 -81 -4 -125 4 -39 7 -75 6
-81 -15 -206 -16 -205 53 -435 32 -106 36 -138 17 -125 -5 2 -18 -4 -30 -15
-44 -38 -35 -140 25 -265 55 -116 93 -148 154 -133 l38 10 94 -94 c94 -96 171
-158 195 -158 7 0 13 -5 13 -11 0 -5 5 -7 10 -4 5 3 10 1 10 -5 0 -6 5 -8 10
-5 6 3 10 1 10 -5 0 -6 4 -8 10 -5 13 8 23 -37 16 -77 -13 -80 0 -66 -126
-148 -36 -24 -69 -49 -73 -56 -4 -8 -65 -56 -135 -109 -70 -52 -136 -107 -147
-121 -11 -14 -28 -35 -38 -47 -15 -18 -57 -96 -62 -117 -1 -3 -4 -12 -8 -20
-9 -25 -27 -86 -32 -111 -3 -13 -7 -35 -10 -49 -3 -14 -7 -36 -10 -50 -9 -46
-14 -95 -20 -185 -3 -49 -8 -117 -11 -150 -2 -33 -7 -87 -9 -120 -2 -33 -7
-97 -11 -143 l-6 -82 967 2 968 3 -2 75 c-10 321 -15 407 -25 467 -3 16 -8 45
-10 64 -3 19 -7 44 -10 55 -2 12 -8 58 -11 102 l-7 81 58 -14 c63 -15 119 -39
199 -86 28 -16 58 -32 68 -35 9 -4 17 -10 17 -15 0 -5 7 -9 15 -9 8 0 15 -4
15 -10 0 -5 7 -10 15 -10 8 0 15 -4 15 -10 0 -5 11 -12 25 -16 14 -3 25 -10
25 -15 0 -5 5 -9 10 -9 6 0 16 -5 23 -11 27 -23 267 -153 267 -144 0 3 14 -2
31 -11 66 -34 172 -43 233 -20 46 18 109 77 120 114 4 12 11 22 15 22 14 0 43
119 45 184 2 66 2 64 -39 301 -15 88 -32 165 -37 171 -4 7 -21 14 -36 17 -28
6 -29 8 -46 129 -29 197 -92 565 -106 618 -16 58 -13 66 33 79 68 21 113 51
152 105 11 15 28 37 38 48 9 12 17 27 17 35 0 7 4 13 9 13 5 0 14 13 21 30 7
16 21 40 31 52 23 28 26 32 64 83 16 22 40 51 52 65 13 14 23 30 23 37 0 7 5
13 10 13 6 0 10 6 10 14 0 8 5 16 10 18 6 2 13 16 15 31 4 20 -1 34 -19 52
-13 13 -30 22 -37 21 -28 -5 -59 -18 -59 -24 0 -4 -14 -23 -30 -42 -39 -45
-41 -49 -70 -90 -23 -33 -58 -70 -67 -70 -6 0 0 9 74 117 35 51 63 97 63 103
0 5 4 10 8 10 5 0 15 12 23 28 8 15 22 36 31 46 10 10 15 23 12 28 -3 4 0 8 5
8 6 0 11 7 11 15 0 8 5 15 10 15 6 0 10 13 10 30 0 61 -76 92 -117 48 -29 -32
-93 -126 -93 -136 0 -5 -9 -17 -20 -27 -11 -10 -20 -24 -20 -31 0 -7 -3 -14
-7 -16 -10 -4 -53 -65 -53 -73 0 -8 -27 -35 -34 -35 -6 0 19 51 47 95 6 11 31
50 53 86 23 36 45 76 49 88 3 11 11 21 16 21 6 0 8 4 5 9 -4 5 -2 11 2 13 11
4 62 113 62 132 0 42 -75 71 -111 43 -18 -14 -109 -161 -109 -176 0 -6 -4 -11
-9 -11 -5 0 -15 -16 -21 -35 -6 -19 -16 -35 -21 -35 -5 0 -9 -5 -9 -11 0 -6
-14 -31 -30 -56 -17 -24 -30 -48 -30 -52 0 -5 -7 -11 -15 -15 -19 -7 -19 -9
10 52 14 29 25 56 25 62 0 5 5 10 11 10 5 0 7 5 4 10 -3 6 -2 10 4 10 5 0 17
21 27 48 10 26 23 54 29 62 7 8 19 36 27 61 14 41 14 48 -1 67 -20 26 -63 37
-88 24 -10 -6 -29 -32 -42 -59 -13 -26 -32 -60 -42 -74 -10 -14 -16 -29 -12
-33 3 -3 0 -6 -7 -6 -7 0 -11 -2 -8 -5 10 -11 -126 -264 -151 -279 -12 -8 -37
32 -50 81 -20 74 -63 112 -133 119 -31 3 -44 -1 -63 -21 -34 -33 -31 -53 11
-108 52 -67 63 -106 60 -221 -4 -122 15 -238 54 -325 28 -65 29 -71 35 -296
11 -427 14 -530 20 -578 5 -38 3 -48 -10 -53 -19 -8 -51 8 -93 45 -105 92
-171 152 -212 191 -26 25 -62 57 -80 70 -17 14 -37 30 -44 36 -23 21 -124 73
-130 67 -3 -4 -6 0 -6 7 0 7 -3 10 -7 7 -3 -4 -11 -3 -17 2 -23 18 -134 43
-196 44 -78 2 -134 -6 -219 -33 -36 -10 -67 -18 -69 -16 -2 2 7 15 20 28 13
13 37 41 53 63 17 21 36 44 43 51 6 7 12 17 12 23 0 6 3 11 8 11 17 0 71 144
78 210 7 63 11 70 34 70 15 0 26 11 37 38 22 52 14 281 -12 336 -23 47 -45 60
-73 40 l-22 -15 0 148 c0 81 -2 167 -5 190 -9 78 -56 201 -90 238 -19 19 -36
49 -40 67 -4 18 -14 41 -22 50 -9 10 -19 38 -24 63 -10 52 -33 88 -69 107 -14
7 -32 21 -41 30 -9 10 -21 18 -28 18 -6 0 -11 3 -11 8 0 12 -106 58 -185 78
-68 18 -221 24 -333 13z"/>
</g>
</svg>
